<?xml version="1.0" standalone="no"?>
<!DOCTYPE svg PUBLIC "-//W3C//DTD SVG 20010904//EN"
 "http://www.w3.org/TR/2001/REC-SVG-20010904/DTD/svg10.dtd">
<svg version="1.0" xmlns="http://www.w3.org/2000/svg"
 width="300.000000pt" height="75.000000pt" viewBox="0 0 300.000000 75.000000"
 preserveAspectRatio="xMidYMid meet">
<metadata>
Created by potrace 1.10, written by Peter Selinger 2001-2011
</metadata>
<g transform="translate(0.000000,75.000000) scale(0.100000,-0.100000)"
fill="#000000" stroke="none">
<path d="M240 733 c0 -12 5 -25 10 -28 13 -8 13 15 0 35 -8 12 -10 11 -10 -7z"/>
<path d="M270 726 c0 -28 -29 -60 -77 -83 -20 -9 -33 -23 -33 -34 0 -13 -7
-17 -27 -16 -19 1 -28 -3 -31 -17 -3 -11 0 -16 7 -11 6 3 9 10 7 14 -3 4 1 8
9 8 18 0 19 -9 3 -27 -11 -12 -10 -12 3 -2 9 6 19 9 22 6 9 -10 549 -13 574
-3 15 5 21 14 17 24 -3 8 -9 13 -13 11 -4 -3 -4 23 0 56 4 33 13 64 21 69 10
7 9 9 -4 9 -9 0 -18 6 -21 13 -4 10 -7 10 -18 0 -11 -11 -11 -13 2 -13 12 0
12 -2 -1 -10 -13 -9 -13 -10 0 -10 13 0 13 -1 0 -10 -13 -9 -13 -10 0 -10 13
0 13 -1 0 -10 -8 -5 -10 -10 -4 -10 8 0 10 -16 8 -44 -4 -36 -1 -45 13 -49 10
-3 -115 -5 -277 -6 -162 0 -289 3 -282 7 7 5 10 15 7 23 -4 10 6 21 30 32 20
9 38 17 41 17 5 0 -1 -24 -13 -57 -3 -8 3 -13 15 -13 17 0 19 4 12 40 -7 40
-7 41 36 60 54 25 71 25 25 1 -28 -15 -31 -19 -16 -25 12 -4 23 1 34 16 9 13
15 26 14 30 -3 9 66 42 73 35 3 -3 -4 -8 -15 -12 -26 -8 -27 -21 -3 -28 9 -3
31 -10 49 -15 22 -7 38 -7 55 2 l24 13 -4 -59 c-3 -42 -1 -58 8 -58 9 0 11 19
8 75 -3 45 -1 78 6 85 7 7 6 10 -2 10 -7 0 -17 -11 -21 -24 -11 -27 -31 -37
-62 -31 -32 6 -46 23 -26 31 9 3 17 10 17 14 0 11 -101 4 -109 -8 -3 -5 -21
-17 -40 -27 l-34 -17 7 25 c3 14 2 29 -4 32 -6 4 -10 -5 -10 -19z"/>
<path d="M566 734 c-3 -9 -6 -47 -6 -85 0 -55 3 -69 15 -69 12 0 15 14 15 69
0 38 3 76 6 85 4 10 1 16 -9 16 -8 0 -18 -7 -21 -16z"/>
<path d="M636 742 c-3 -6 0 -13 6 -15 9 -4 9 -6 1 -6 -6 -1 -9 -10 -6 -21 8
-29 -5 -72 -19 -64 -7 4 -8 3 -4 -5 4 -6 11 -9 16 -6 5 3 10 -7 12 -22 2 -16
7 8 11 51 8 73 0 114 -17 88z"/>
<path d="M867 729 c3 -9 0 -20 -6 -23 -6 -4 -11 -21 -11 -37 0 -22 6 -32 25
-39 34 -13 32 -30 -4 -30 -20 0 -32 -6 -36 -18 -3 -11 -17 -24 -30 -30 -21
-10 -25 -18 -25 -56 0 -41 -2 -44 -31 -48 -17 -3 -32 0 -34 6 -2 6 -6 23 -9
38 -12 52 -85 50 -106 -3 -11 -27 -10 -32 10 -54 14 -15 30 -23 40 -20 10 3
23 -2 30 -11 12 -13 11 -17 -1 -25 -11 -7 -9 -9 7 -9 27 0 38 24 19 40 -8 7
-12 17 -9 22 8 12 44 -20 44 -39 0 -8 -4 -11 -10 -8 -5 3 -10 -1 -10 -9 0 -10
-10 -16 -27 -17 -25 -2 -26 -2 -5 -6 28 -5 62 22 62 49 0 11 7 18 19 18 16 0
17 -5 11 -41 -12 -63 -37 -82 -117 -86 -205 -12 -215 -11 -252 24 -25 25 -37
30 -47 22 -9 -7 -20 -6 -37 6 -15 9 -28 12 -31 7 -3 -6 -42 -8 -89 -5 -74 4
-85 2 -101 -16 -21 -23 -27 -134 -8 -153 17 -17 15 -25 -8 -31 -16 -4 -20 -14
-20 -51 0 -33 5 -48 15 -52 11 -4 13 -13 9 -27 -6 -20 -6 -20 10 -4 10 9 22
15 27 12 14 -9 11 -17 -3 -9 -7 4 -9 3 -5 -1 4 -5 18 -11 31 -12 17 -2 25 2
29 17 4 17 13 20 56 20 32 0 51 -4 51 -12 0 -6 3 -8 7 -4 5 4 1 13 -7 19 -8 7
-16 23 -18 37 -2 21 -1 22 8 8 6 -10 18 -14 32 -10 14 3 19 2 14 -6 -5 -9 14
-12 69 -12 73 0 76 1 86 27 8 21 12 24 19 13 5 -8 5 -21 -1 -31 -12 -23 -12
-32 1 -24 13 8 13 -1 0 -25 -9 -17 -5 -18 44 -17 30 1 58 5 62 9 10 11 26 10
20 -1 -8 -12 114 -13 129 -1 9 8 15 8 20 0 3 -5 12 -10 18 -10 7 0 6 4 -3 11
-12 8 -9 9 12 5 14 -3 34 -9 45 -13 16 -6 16 -5 5 10 -8 9 -20 13 -30 9 -16
-5 -16 -5 0 11 17 17 15 39 -4 64 -17 21 -56 -4 -50 -33 4 -20 -2 -27 -33 -40
-31 -13 -46 -13 -86 -4 -37 9 -57 9 -84 0 -20 -7 -38 -10 -40 -8 -5 5 -7 39
-6 80 1 32 5 38 34 48 17 6 40 22 50 35 17 24 17 25 -3 25 -11 0 -20 3 -21 8
-9 65 -8 67 55 70 32 2 66 0 75 -4 9 -4 20 -6 25 -5 4 1 14 -3 21 -9 19 -16
42 16 28 39 -8 12 -7 22 2 35 8 11 15 13 20 7 3 -6 12 -11 18 -10 7 0 2 7 -10
16 -13 8 -23 24 -23 35 0 16 7 18 58 17 32 -1 68 3 79 10 12 6 28 11 35 10 7
0 3 -5 -9 -11 -19 -9 -23 -19 -23 -54 l0 -43 -71 3 c-58 3 -69 1 -65 -11 3 -8
6 -16 6 -19 0 -2 7 -1 15 2 9 4 29 1 46 -6 26 -11 31 -10 43 5 13 18 36 14 36
-6 0 -6 -5 -7 -12 -3 -7 5 -8 3 -4 -5 5 -8 3 -11 -5 -10 -21 3 -50 -12 -43
-22 11 -18 -6 -48 -24 -43 -15 5 -15 4 1 -6 19 -12 41 -5 32 11 -4 5 -1 9 5 9
7 0 9 8 5 21 -5 15 -4 19 4 15 16 -10 13 -41 -6 -65 -13 -16 -31 -22 -67 -24
-45 -2 -50 -5 -57 -30 -4 -15 -6 -27 -3 -27 2 0 29 12 61 26 32 15 64 28 71
30 8 1 19 10 26 20 7 9 18 14 25 10 12 -8 80 10 96 26 7 6 7 9 0 8 -5 -2 -23
-2 -38 -1 -37 1 -33 28 8 52 42 25 58 23 93 -11 26 -24 36 -28 55 -21 15 6 28
5 40 -4 25 -18 21 -26 -7 -15 -15 5 -38 5 -61 -1 -20 -6 -43 -8 -51 -5 -9 3
-12 1 -9 -4 3 -6 -1 -10 -9 -10 -9 0 -16 -5 -16 -10 0 -6 4 -9 9 -8 5 2 16 -6
25 -17 15 -20 15 -20 9 2 -7 30 22 31 38 2 7 -14 17 -19 30 -16 24 6 24 -2 -2
-33 -19 -23 -20 -24 -14 -3 4 16 0 25 -15 33 -21 11 -27 1 -10 -16 8 -8 6 -15
-5 -24 -8 -7 -15 -21 -15 -32 0 -33 -24 -14 -33 25 -5 20 -15 37 -22 37 -7 0
-18 6 -24 14 -10 11 -8 17 6 26 16 10 15 11 -7 6 -14 -3 -29 -6 -34 -6 -9 0
29 -36 52 -49 8 -4 17 -23 21 -42 l7 -34 67 -3 c49 -2 71 1 82 12 13 13 11 18
-18 40 -39 31 -27 35 15 5 16 -12 31 -19 33 -17 2 2 -9 12 -26 23 -16 11 -27
26 -24 32 2 7 0 13 -5 13 -6 0 -10 9 -10 20 0 26 20 26 27 0 3 -11 9 -17 14
-15 4 3 5 13 2 23 -6 14 -4 15 9 4 9 -7 18 -9 20 -4 1 5 13 13 26 16 18 6 22
3 22 -13 0 -13 -8 -21 -25 -24 -24 -4 -23 -4 2 -3 22 1 28 7 34 34 7 36 16 49
26 39 3 -4 1 -31 -6 -61 -10 -43 -17 -56 -34 -60 -20 -4 -19 -4 2 -3 25 2 41
32 55 108 6 35 5 36 -19 31 -14 -2 -25 -11 -25 -18 0 -20 -64 -18 -95 2 -14 9
-25 26 -26 38 0 21 0 21 -9 -2 -5 -12 -17 -22 -27 -22 -31 1 -75 48 -77 81 -1
23 -5 29 -21 28 -40 -3 -54 1 -58 19 -4 16 -5 16 -6 0 -1 -20 26 -37 53 -35
12 1 20 -6 22 -20 3 -15 -1 -23 -11 -23 -9 0 -12 6 -8 17 6 15 5 16 -9 3 -9
-8 -14 -18 -11 -23 2 -4 -7 -11 -21 -16 -25 -10 -42 -43 -31 -61 11 -17 -5
-32 -20 -20 -8 7 -19 9 -25 5 -14 -9 -13 28 2 43 7 7 13 42 15 79 2 65 14 88
40 78 6 -2 14 1 17 8 2 7 5 -1 6 -18 0 -25 2 -27 11 -12 6 10 22 17 39 17 46
0 60 10 60 41 0 28 -8 33 -47 32 -22 -1 -14 15 10 20 12 2 3 5 -20 6 -39 1
-43 -1 -49 -26 -3 -16 -7 -32 -8 -38 -2 -9 -266 -8 -275 1 -2 2 57 4 132 4
120 0 137 2 137 16 0 12 -4 14 -12 7 -31 -23 -43 -9 -46 52 -1 33 -5 67 -9 75
-3 8 -6 18 -5 21 0 3 -15 12 -34 19 -27 11 -34 19 -34 42 0 15 4 28 9 28 5 0
8 -11 6 -25 -2 -19 2 -25 16 -25 11 0 19 -4 19 -10 0 -5 8 -10 18 -10 12 0 10
5 -10 18 -33 19 -33 24 -12 60 15 24 15 25 0 8 -9 -11 -19 -16 -23 -13 -4 4
-1 13 5 19 17 17 15 24 -7 24 -12 0 -17 -6 -14 -17z m4 -151 c0 -10 2 -10 6 0
2 6 15 12 28 12 22 0 23 -4 23 -69 l0 -69 -69 0 -70 0 4 41 c2 23 10 43 17 45
8 3 10 0 5 -9 -5 -8 4 -3 18 10 15 14 27 29 27 35 0 6 -5 4 -10 -4 -5 -8 -10
-10 -10 -4 0 23 29 34 31 12z m-182 -72 c7 -8 10 -27 8 -43 -3 -24 -8 -28 -37
-28 -42 0 -59 23 -42 59 13 29 52 35 71 12z m407 -48 c3 -4 -2 -8 -10 -8 -9 0
-16 -7 -16 -15 0 -8 5 -15 11 -15 5 0 7 5 4 10 -3 6 -1 10 5 10 7 0 10 -6 8
-12 -3 -7 -21 -14 -41 -16 -35 -2 -37 -1 -37 28 0 27 2 29 35 28 20 -1 38 -5
41 -10z m-773 -124 c20 -7 9 -44 -13 -44 -20 0 -34 37 -16 44 6 2 12 5 13 5 1
1 8 -2 16 -5z m-65 -16 c16 -16 16 -120 0 -136 -7 -7 -39 -12 -75 -12 -59 0
-64 2 -73 26 -11 28 -13 94 -4 118 5 12 21 16 73 16 39 0 72 -5 79 -12z m132
-3 c0 -8 7 -15 16 -15 11 0 14 -8 12 -27 -3 -24 -8 -28 -40 -31 -34 -3 -38 -1
-38 21 0 14 7 27 15 31 8 3 15 12 15 21 0 8 5 15 10 15 6 0 10 -7 10 -15z
m377 -20 c0 -8 -2 -13 -5 -10 -3 2 -14 -1 -26 -7 -21 -11 -21 -11 -2 11 22 25
33 27 33 6z m-442 -46 c-11 -16 -31 -10 -32 11 -2 17 1 18 18 10 11 -6 17 -15
14 -21z m220 -24 l0 -50 -50 0 -50 0 -3 39 c-5 60 1 68 55 64 l48 -3 0 -50z
m-127 -8 c13 -10 16 -66 6 -105 -6 -21 -11 -23 -68 -20 l-61 3 -3 59 c-2 40 1
62 10 68 17 11 99 8 116 -5z m754 -28 c-11 -28 -22 -28 -41 0 -15 24 -15 24 7
19 12 -3 22 -2 22 4 0 5 4 7 10 3 5 -3 6 -15 2 -26z m-582 -9 c0 -4 -7 -10
-15 -14 -10 -4 -15 1 -15 14 0 13 5 18 15 14 8 -4 15 -10 15 -14z m-328 -70
c-4 -50 -4 -50 -38 -50 -27 0 -37 -5 -46 -25 -16 -35 -35 -30 -29 8 0 4 -15 7
-34 7 -35 0 -35 0 -35 44 l0 44 63 6 c79 8 122 13 122 15 0 0 -2 -21 -3 -49z
m268 40 c-19 -13 -30 -13 -30 0 0 6 10 10 23 10 18 0 19 -2 7 -10z m-40 -21
c0 -6 -7 -8 -16 -5 -13 5 -15 1 -12 -19 3 -15 1 -25 -7 -25 -7 0 -10 11 -7 30
3 21 10 30 23 30 11 0 19 -5 19 -11z m717 -54 c-2 -5 -16 -11 -30 -13 -24 -3
-27 0 -23 20 3 13 5 24 5 25 4 7 50 -24 48 -32z m-64 19 c9 -10 -4 -34 -19
-34 -8 0 -14 9 -14 20 0 19 19 27 33 14z m-334 -45 c-5 -11 -14 -17 -19 -14
-8 5 -8 16 -1 54 1 2 8 -2 16 -9 11 -9 12 -17 4 -31z"/>
<path d="M890 570 c0 -5 7 -10 15 -10 8 0 15 5 15 10 0 6 -7 10 -15 10 -8 0
-15 -4 -15 -10z"/>
<path d="M863 544 c-16 -16 -17 -34 -3 -34 6 0 10 6 10 14 0 8 5 16 12 18 7 3
8 7 3 10 -6 3 -16 0 -22 -8z"/>
<path d="M897 533 c-12 -11 -8 -23 8 -23 8 0 15 7 15 15 0 16 -12 20 -23 8z"/>
<path d="M825 511 c-3 -5 -1 -12 5 -16 5 -3 10 1 10 9 0 18 -6 21 -15 7z"/>
<path d="M887 479 c6 -22 33 -26 33 -5 0 7 -8 16 -19 19 -14 3 -17 0 -14 -14z"/>
<path d="M800 475 c0 -8 5 -15 10 -15 6 0 10 7 10 15 0 8 -4 15 -10 15 -5 0
-10 -7 -10 -15z"/>
<path d="M850 475 c0 -8 5 -15 10 -15 6 0 10 7 10 15 0 8 -4 15 -10 15 -5 0
-10 -7 -10 -15z"/>
<path d="M626 483 c-4 -9 -2 -21 3 -26 15 -15 46 -3 49 21 3 18 -1 22 -21 22
-14 0 -28 -7 -31 -17z m34 -8 c0 -8 -7 -15 -15 -15 -16 0 -20 12 -8 23 11 12
23 8 23 -8z"/>
<path d="M1033 439 c-2 -23 3 -25 10 -4 4 8 3 16 -1 19 -4 3 -9 -4 -9 -15z"/>
<path d="M120 256 c0 -67 6 -76 51 -76 24 0 26 44 4 66 -13 13 -13 18 1 39 9
13 23 26 32 28 9 3 -7 5 -35 6 l-53 1 0 -64z m37 17 c0 -16 3 -36 7 -45 6 -14
4 -18 -11 -18 -15 0 -19 8 -21 35 -2 20 0 40 3 45 12 19 22 10 22 -17z"/>
<path d="M230 312 c0 -7 -7 -12 -15 -12 -18 0 -39 -36 -25 -45 5 -3 11 -18 11
-33 l2 -27 4 25 c3 14 10 28 17 33 8 5 7 10 -4 17 -13 9 -13 11 0 20 12 7 16
4 18 -17 2 -14 0 -29 -5 -32 -12 -9 -11 -62 2 -58 5 2 14 27 19 56 7 43 6 55
-7 69 -11 10 -17 12 -17 4z"/>
<path d="M362 288 c-19 -19 -14 -33 13 -33 31 0 41 21 16 34 -12 7 -22 6 -29
-1z"/>
<path d="M454 256 c-3 -8 -4 -27 -2 -43 3 -25 7 -28 46 -31 35 -3 42 0 42 15
0 14 -2 15 -9 4 -6 -10 -13 -5 -25 20 -9 18 -13 35 -10 38 4 3 9 1 11 -6 5
-13 33 -6 33 8 0 15 -80 10 -86 -5z m32 -13 c16 -21 18 -37 4 -28 -6 3 -7 -1
-4 -9 4 -10 1 -16 -7 -16 -9 0 -14 13 -15 35 -1 40 3 42 22 18z"/>
<path d="M300 155 l0 -55 55 0 55 0 -1 38 c0 31 -2 34 -9 15 -10 -25 -44 -46
-67 -41 -11 2 -17 17 -20 47 -4 40 -3 43 11 32 13 -11 19 -11 31 -1 8 6 23 9
35 5 11 -4 20 -2 20 4 0 7 -23 11 -55 11 l-55 0 0 -55z"/>
<path d="M360 180 c0 -7 -8 -10 -20 -7 -17 4 -18 3 -8 -16 7 -12 11 -26 10
-31 -2 -5 7 -2 20 6 25 17 31 49 11 56 -7 2 -13 -2 -13 -8z"/>
<path d="M90 95 c0 -31 3 -35 25 -35 14 0 25 5 25 11 0 5 4 8 9 5 5 -4 6 4 3
16 -5 18 -7 19 -10 6 -2 -9 -10 -19 -18 -22 -17 -7 -18 5 -1 23 10 11 10 13 0
7 -7 -4 -13 -3 -13 3 0 14 73 11 82 -3 5 -8 8 -7 8 2 0 6 7 12 15 12 8 0 15
-9 15 -19 0 -11 5 -23 10 -26 6 -4 10 7 10 24 l0 31 -80 0 -80 0 0 -35z"/>
<path d="M160 100 c0 -5 5 -10 10 -10 6 0 10 5 10 10 0 6 -4 10 -10 10 -5 0
-10 -4 -10 -10z"/>
<path d="M185 80 c-18 -8 -17 -9 8 -9 16 -1 26 3 22 9 -3 6 -7 10 -8 9 -1 0
-11 -4 -22 -9z"/>
<path d="M1030 740 c-8 -5 -11 -13 -6 -17 5 -4 11 -2 13 5 7 19 27 14 52 -12
30 -32 25 -72 -12 -94 -27 -16 -29 -16 -43 2 -12 17 -12 22 3 38 9 10 11 18 5
18 -7 0 -9 7 -5 17 4 9 2 14 -3 11 -11 -7 -35 17 -27 26 4 3 -1 6 -10 6 -9 0
-17 -4 -17 -9 0 -5 -10 -7 -22 -4 -19 5 -21 3 -10 -8 6 -7 24 -13 40 -14 21 0
27 -5 29 -25 3 -25 3 -25 -7 -2 -5 12 -14 22 -20 22 -6 0 -15 -10 -20 -22 -9
-23 -9 -23 -9 -2 -1 25 -27 39 -34 19 -3 -7 3 -21 14 -31 10 -9 18 -22 17 -28
-2 -19 13 -46 27 -46 7 0 18 7 25 15 9 11 16 13 24 5 27 -27 86 12 86 58 0 28
-41 82 -63 82 -7 0 -19 -4 -27 -10z m-26 -76 c7 -19 -3 -64 -14 -64 -13 0 -22
38 -15 60 8 24 21 26 29 4z"/>
<path d="M1120 741 c0 -14 41 -41 62 -41 14 0 18 -8 18 -36 0 -28 -3 -35 -15
-30 -23 9 -55 -16 -55 -42 0 -13 4 -21 10 -17 5 3 7 12 4 19 -3 7 1 17 8 23
15 12 88 5 88 -8 0 -5 11 -9 25 -9 14 0 25 5 25 10 0 6 5 10 10 10 5 0 9 -5 8
-11 -2 -6 4 -14 12 -16 12 -4 12 -3 2 5 -8 5 -13 12 -13 16 4 30 -1 42 -21 43
-17 2 -19 0 -8 -7 24 -15 -17 -25 -46 -11 -18 8 -25 18 -23 34 5 31 -8 47 -37
47 -14 0 -27 7 -30 15 -7 16 -24 21 -24 6z"/>
<path d="M1200 736 c0 -7 7 -19 15 -26 8 -7 15 -9 15 -4 0 4 11 -3 24 -15 14
-13 31 -21 38 -19 8 3 -1 13 -22 26 -19 12 -28 22 -19 22 8 0 24 -7 35 -15 30
-23 40 -17 10 6 -18 14 -34 19 -51 15 -18 -5 -25 -2 -25 9 0 8 -4 15 -10 15
-5 0 -10 -6 -10 -14z"/>
<path d="M1300 735 c0 -9 7 -18 15 -22 23 -8 24 0 3 20 -15 14 -18 15 -18 2z"/>
<path d="M1325 740 c3 -5 14 -10 23 -10 15 0 15 2 2 10 -20 13 -33 13 -25 0z"/>
<path d="M1365 720 c-11 -17 -28 -33 -37 -36 -10 -3 -18 -10 -18 -16 0 -7 4
-7 13 0 6 5 23 12 37 14 15 2 24 9 22 17 -2 7 5 22 14 32 13 15 14 19 3 19 -8
0 -23 -14 -34 -30z"/>
<path d="M1454 728 c1 -33 60 -88 100 -95 28 -4 41 0 66 21 18 14 37 26 43 26
14 0 -33 -39 -47 -40 -5 0 -1 -9 9 -20 13 -15 22 -17 36 -10 12 7 20 7 24 0 3
-5 12 -10 18 -10 8 0 7 3 -2 9 -11 7 -9 10 8 16 13 4 25 4 28 1 4 -3 0 -6 -8
-7 -8 0 -3 -5 10 -10 13 -5 27 -6 30 -3 3 4 0 9 -6 11 -7 3 -13 11 -13 19 0
16 -26 19 -35 4 -3 -5 -11 -10 -17 -10 -7 0 -6 6 2 15 7 8 20 15 29 15 17 0
51 -33 51 -49 0 -5 15 -12 33 -16 17 -4 41 -9 52 -12 12 -3 4 9 -23 32 -41 36
-79 92 -68 102 2 3 12 -10 21 -27 41 -79 116 -120 220 -120 53 0 76 5 95 19
l24 19 -24 20 c-21 17 -23 22 -11 36 8 9 12 18 10 19 -17 12 -58 28 -78 32
-13 2 -32 12 -42 21 -18 16 -19 16 -19 -9 0 -15 3 -26 8 -25 22 5 84 -17 93
-33 5 -11 7 -19 4 -19 -3 0 1 -10 10 -23 14 -22 14 -24 -9 -37 -16 -8 -42 -10
-78 -6 -29 3 -57 6 -61 6 -5 0 -6 4 -3 9 3 5 -1 11 -9 15 -8 3 -15 1 -15 -3 0
-13 -46 11 -58 30 -9 14 -7 18 9 22 14 4 23 -1 29 -16 8 -21 9 -20 9 6 1 15 8
43 15 62 8 19 11 35 7 35 -9 0 -37 -60 -34 -71 1 -3 -12 -6 -29 -5 -42 1 -58
28 -34 55 23 25 7 27 -37 5 -18 -9 -33 -18 -35 -19 -5 -4 43 -79 63 -98 9 -10
12 -17 6 -17 -12 0 -38 25 -51 51 -15 26 -53 24 -88 -6 -35 -29 -42 -31 -42
-10 0 8 7 15 15 15 8 0 15 4 15 9 0 5 14 14 30 21 17 7 33 17 36 22 4 5 -8 2
-26 -7 -25 -13 -35 -14 -44 -4 -6 6 -6 9 -1 6 15 -8 100 38 87 47 -7 4 -12 3
-12 -2 0 -9 -43 -32 -61 -32 -6 0 -6 7 1 20 13 25 2 26 -17 3 -14 -17 -14 -17
-9 0 3 9 1 17 -5 17 -6 0 -9 -10 -7 -22 4 -26 -31 -48 -75 -48 -25 0 -27 3
-21 23 9 29 12 44 6 34 -2 -4 -11 -2 -20 5 -14 10 -15 10 -4 -2 23 -27 12 -33
-15 -9 l-28 24 24 -27 c14 -16 21 -31 17 -35 -4 -5 -21 7 -37 25 -34 38 -36
39 -35 10z m116 -68 c12 0 18 -4 15 -10 -10 -16 -31 -12 -56 11 -23 19 -23 20
-2 10 12 -6 31 -11 43 -11z"/>
<path d="M1870 740 c19 -13 30 -13 30 0 0 6 -10 10 -22 10 -19 0 -20 -2 -8
-10z"/>
<path d="M1927 715 c-14 -29 -14 -35 -3 -35 8 0 20 -2 28 -5 10 -4 13 4 10 35
-2 22 -7 40 -11 40 -4 0 -15 -16 -24 -35z"/>
<path d="M2020 740 c0 -5 4 -10 9 -10 6 0 13 5 16 10 3 6 -1 10 -9 10 -9 0
-16 -4 -16 -10z"/>
<path d="M2070 732 c0 -7 5 -10 10 -7 6 3 10 -1 10 -9 0 -17 20 -17 32 -1 4 6
33 10 65 9 32 0 61 4 65 10 14 20 9 -14 -6 -42 -18 -34 -69 -82 -119 -112 -30
-18 -55 -23 -123 -25 -53 -1 -81 1 -72 7 8 5 2 6 -17 2 -19 -3 -25 -2 -17 3 8
7 2 10 -20 10 -18 0 -66 3 -106 8 l-73 8 3 -44 c2 -36 8 -46 30 -57 31 -15 52
-47 44 -67 -8 -22 -71 -29 -106 -12 -17 9 -28 11 -25 6 4 -5 -6 -9 -22 -9 -23
0 -25 2 -13 11 13 9 12 10 -2 5 -12 -3 -18 0 -18 9 0 8 6 16 13 16 25 2 52 -3
58 -12 3 -5 13 -7 22 -3 12 4 17 1 17 -10 0 -10 8 -16 23 -16 22 0 22 0 -3 20
-14 11 -33 20 -42 20 -21 0 -24 26 -4 33 22 9 65 -16 68 -38 3 -22 20 -24 27
-4 2 7 -1 9 -8 5 -7 -5 -9 -1 -5 8 4 10 -1 18 -12 22 -11 3 -29 10 -40 16 -15
7 -28 6 -45 -3 -52 -27 -59 -29 -59 -19 0 5 -10 10 -22 10 -22 -1 -23 -1 -4
-15 11 -8 15 -15 10 -15 -6 0 -19 7 -30 15 -10 8 -38 15 -61 15 -49 0 -57 9
-49 56 7 32 9 34 49 34 34 1 46 6 61 28 l19 27 -26 -24 c-25 -23 -30 -23 -151
-19 -101 3 -123 1 -114 -9 6 -7 26 -13 44 -13 31 0 34 -3 34 -29 0 -25 5 -30
33 -36 39 -9 82 -49 73 -70 -3 -9 -18 -15 -41 -15 -28 0 -35 -4 -35 -20 0 -28
60 -28 78 0 9 15 22 19 52 18 23 -1 43 -5 46 -10 3 -4 10 -8 16 -8 7 0 6 6 -2
15 -8 9 -30 15 -56 15 -40 0 -44 2 -44 25 0 19 5 25 20 25 32 0 75 -26 87 -52
11 -25 7 -51 -7 -43 -5 3 -11 1 -15 -5 -7 -12 15 -13 31 -2 6 4 14 14 17 22 4
10 6 8 6 -7 1 -13 -3 -23 -8 -23 -5 0 -11 -11 -14 -25 l-4 -26 20 22 c25 27
36 9 16 -27 -8 -17 -21 -24 -41 -24 -15 0 -28 5 -28 10 0 6 5 10 12 10 6 0 9
2 6 5 -8 9 -38 -6 -32 -16 3 -5 1 -9 -5 -9 -5 0 -11 4 -13 9 -1 4 -14 11 -28
15 -20 6 -22 5 -10 -4 13 -9 12 -11 -4 -8 -28 4 -44 34 -27 50 12 11 13 10 7
-6 -5 -15 -4 -17 8 -7 7 6 20 9 29 5 8 -3 18 -1 22 5 3 6 0 9 -7 6 -7 -3 -19
4 -26 15 -10 17 -10 21 3 26 8 4 21 1 28 -4 15 -12 46 2 33 15 -5 4 -11 2 -13
-5 -4 -10 -8 -10 -18 -2 -17 14 -55 4 -55 -15 0 -7 3 -15 8 -18 4 -2 1 -2 -6
0 -8 1 -31 3 -53 3 -35 0 -39 3 -39 24 0 21 -5 25 -37 28 -26 2 -38 8 -38 18
0 9 8 14 20 13 11 -1 14 0 7 3 -6 3 -10 10 -6 15 8 13 -10 11 -24 -3 -9 -9
-12 -4 -14 22 -1 32 -2 32 -8 -10 l-7 -45 -1 42 c-2 30 -7 43 -19 46 -14 4
-12 5 5 6 12 0 22 6 22 11 0 6 13 10 29 10 24 0 28 -3 24 -20 -3 -11 -1 -20 3
-20 5 0 10 11 10 25 2 22 -2 25 -32 25 -19 0 -34 5 -34 10 0 6 -7 10 -16 10
-8 0 -12 5 -9 10 3 6 1 10 -4 10 -18 0 -13 -18 9 -33 29 -20 15 -27 -56 -27
-49 0 -65 4 -73 18 -6 9 -11 12 -11 5 0 -6 5 -15 10 -18 6 -4 8 -11 5 -16 -3
-5 1 -6 9 -3 9 3 16 1 16 -5 0 -10 -20 -16 -42 -12 -4 0 -5 -6 -2 -14 4 -8 13
-15 20 -15 8 0 18 -8 21 -17 6 -15 7 -14 14 3 6 18 8 17 18 -6 10 -22 11 -22
7 -3 -2 12 1 24 8 27 6 3 -6 4 -26 3 -21 0 -40 2 -44 6 -4 4 0 7 10 7 9 0 19
7 22 15 4 8 10 15 16 15 5 0 7 -4 4 -8 -3 -5 1 -9 9 -9 8 0 12 4 9 9 -8 13 19
9 39 -6 17 -14 24 -32 8 -21 -15 8 -41 -24 -41 -51 0 -26 -9 -31 -28 -12 -9 9
-12 9 -12 -3 -1 -7 -8 -2 -16 14 -18 32 -24 34 -24 6 0 -11 5 -17 10 -14 5 3
10 1 10 -4 0 -6 -7 -11 -16 -11 -9 0 -14 -6 -12 -12 3 -8 25 -14 52 -16 29 -2
46 1 42 6 -3 6 1 27 10 48 15 34 18 37 25 19 4 -11 8 -27 8 -35 -1 -11 -2 -11
-6 -2 -4 10 -8 10 -18 2 -18 -15 -8 -40 16 -40 13 0 19 7 19 23 0 18 2 19 10
7 8 -12 10 -12 10 -1 0 9 4 10 13 4 6 -6 24 -13 38 -17 15 -3 29 -15 32 -26 4
-15 13 -20 36 -20 24 0 31 -4 31 -19 0 -11 5 -23 10 -26 17 -11 11 -25 -12
-25 -12 0 -30 8 -41 17 -19 18 -19 17 -6 -5 13 -21 21 -22 120 -22 94 0 108 2
124 20 16 18 17 27 9 59 -10 36 -9 38 10 33 18 -5 19 -3 8 10 -11 14 -10 16 7
11 12 -3 19 -9 16 -13 -3 -4 2 -13 10 -20 13 -11 14 -10 10 1 -4 10 2 15 16
16 11 1 32 9 45 17 18 13 23 24 21 53 -1 29 2 38 16 41 14 3 17 -4 17 -46 0
-41 -4 -51 -22 -59 -19 -8 -20 -10 -4 -16 10 -4 15 -3 11 3 -3 6 -1 10 5 10 6
0 10 -8 8 -17 -2 -11 -12 -18 -26 -17 -12 0 -22 -2 -22 -5 1 -14 17 -26 38
-27 21 -1 22 2 22 93 0 83 -2 93 -18 93 -10 0 -23 -5 -29 -11 -6 -6 -16 -8
-22 -5 -15 10 -14 24 2 23 55 -2 64 3 59 29 -4 20 -1 25 9 22 10 -4 13 -18 11
-48 -3 -37 -1 -42 14 -36 10 4 21 1 25 -6 5 -8 8 -6 7 8 -2 16 -7 20 -22 16
-15 -4 -18 -2 -13 12 4 10 7 25 7 33 0 12 6 14 27 8 44 -11 52 -22 42 -58 -5
-18 -9 -33 -9 -34 0 -2 9 -3 21 -3 13 0 18 -4 13 -12 -6 -10 -4 -10 7 0 7 6
17 12 22 12 4 0 5 -6 1 -12 -6 -10 -4 -10 7 -2 8 6 42 10 76 10 34 -1 59 2 57
6 -3 5 -27 8 -54 8 -29 0 -51 5 -54 13 -5 10 -7 10 -12 0 -8 -18 -64 -17 -64
2 0 31 23 66 39 59 9 -4 48 -8 86 -10 39 -2 62 -1 52 2 -21 7 -13 24 12 24 11
0 42 21 69 48 50 46 51 47 73 30 11 -10 26 -15 32 -11 6 4 25 7 41 7 24 0 32
-5 34 -22 3 -20 -1 -22 -50 -22 -47 0 -58 -4 -86 -31 -17 -17 -36 -28 -42 -24
-6 3 -7 0 -4 -9 3 -8 13 -17 22 -19 15 -4 15 -5 0 -6 -11 -1 -18 -9 -18 -22 0
-15 5 -20 23 -17 12 2 21 -2 20 -8 -1 -7 6 -10 17 -7 14 4 20 0 20 -11 0 -9 5
-16 11 -16 5 0 7 5 4 11 -7 10 33 56 45 52 4 -1 4 11 2 28 -2 16 -8 29 -13 29
-5 0 -9 5 -9 10 0 6 12 10 27 10 21 0 24 -3 15 -12 -13 -13 -16 -48 -4 -48 16
0 27 16 30 43 3 27 2 27 -53 27 -42 0 -55 -3 -55 -15 0 -8 7 -15 16 -15 22 0
15 -60 -9 -74 -15 -9 -21 -7 -33 8 -19 27 -19 77 1 70 10 -4 15 0 15 15 0 19
6 21 60 21 53 0 60 2 60 20 0 21 40 38 59 25 7 -4 11 11 11 44 l0 51 40 0 c35
0 40 -3 40 -24 0 -20 -4 -23 -27 -20 -28 4 -28 4 -3 -5 14 -4 36 -4 49 1 28
10 27 11 36 -25 6 -24 5 -27 -19 -27 -18 0 -26 5 -26 18 0 14 -2 15 -10 2 -5
-8 -9 -35 -8 -60 0 -25 3 -34 5 -21 3 13 14 26 26 29 20 5 20 6 1 13 -18 7
-17 8 4 8 18 1 22 -4 22 -26 0 -38 10 -73 21 -73 5 0 9 5 9 12 0 6 7 20 17 30
9 10 13 21 10 25 -4 4 -14 -2 -21 -13 -16 -21 -33 -14 -20 8 5 7 7 21 5 31 -1
12 5 20 18 24 12 3 21 9 21 15 0 5 -9 4 -20 -2 -16 -9 -20 -8 -20 6 0 24 -29
54 -46 47 -8 -3 -14 1 -14 9 0 20 -37 50 -44 35 -3 -9 -5 -8 -5 1 -1 9 -7 8
-25 -4 -17 -11 -26 -27 -28 -52 -3 -36 -28 -59 -28 -26 0 19 -48 94 -60 94 -4
0 -7 -8 -6 -17 0 -10 -6 -18 -14 -18 -8 0 -14 8 -14 18 2 23 -13 22 -26 -3
-12 -22 -35 -17 -26 5 4 10 -18 13 -100 12 -78 -2 -104 -5 -104 -15z m255 -22
c9 -15 -3 -30 -20 -24 -7 3 -11 12 -8 20 6 16 19 18 28 4z m69 -22 c-2 -4 0
-9 6 -13 18 -11 11 -35 -11 -35 -16 0 -20 5 -16 20 3 12 -1 24 -11 30 -14 8
-15 11 -3 19 14 9 43 -8 35 -21z m-86 -31 c2 -10 -3 -17 -12 -17 -18 0 -29 16
-21 31 9 14 29 6 33 -14z m52 -2 c0 -9 -9 -15 -22 -14 -13 0 -17 3 -9 6 11 5
11 7 0 14 -10 6 -8 9 9 9 13 0 22 -6 22 -15z m-553 -89 c12 -12 -7 -34 -26
-29 -13 3 -24 -2 -32 -16 -10 -15 -16 -17 -26 -9 -17 13 -17 55 0 62 14 6 76
1 84 -8z m-374 -28 c-8 -42 -6 -40 -37 -32 -21 5 -26 11 -24 35 2 26 6 29 35
29 31 0 32 -1 26 -32z m934 -20 c-3 -8 -6 -5 -6 6 -1 11 2 17 5 13 3 -3 4 -12
1 -19z m-1172 -119 c4 -5 -8 -9 -25 -9 -17 0 -29 4 -26 8 7 11 45 12 51 1z
m250 -9 c-3 -5 -15 -10 -26 -10 -11 0 -17 5 -14 10 3 6 15 10 26 10 11 0 17
-4 14 -10z"/>
<path d="M2660 717 c0 -26 6 -37 25 -47 32 -17 32 -28 -2 -33 -19 -3 -15 -4
15 -6 39 -1 43 -3 40 -23 -2 -19 -10 -24 -40 -26 -30 -3 -38 -7 -38 -23 0 -10
7 -19 15 -19 8 0 15 5 15 11 0 5 -4 7 -10 4 -5 -3 -10 -1 -10 4 0 6 14 11 31
11 18 0 28 -4 24 -10 -4 -6 -12 -7 -18 -4 -9 5 -9 4 -1 -5 9 -10 16 -10 33 1
11 7 21 18 21 25 0 13 12 17 37 14 6 -1 15 3 18 10 5 7 -4 9 -25 7 -19 -2 -35
2 -37 9 -3 7 10 13 34 16 32 3 30 4 -14 5 -48 2 -53 4 -53 25 0 12 -3 32 -6
45 -6 22 -5 22 95 22 55 0 101 4 101 8 0 9 -185 6 -200 -3 -4 -3 -11 1 -13 7
-3 7 -6 -1 -6 -19 -1 -17 5 -34 12 -36 7 -3 5 -6 -5 -6 -14 -1 -18 7 -18 34 0
19 -4 35 -10 35 -5 0 -10 -15 -10 -33z"/>
<path d="M2922 720 c0 -14 2 -19 5 -12 2 6 2 18 0 25 -3 6 -5 1 -5 -13z"/>
<path d="M1842 715 c-20 -11 -21 -14 -7 -25 11 -9 15 -9 15 -1 0 7 4 10 9 6
13 -7 26 15 15 24 -5 4 -19 2 -32 -4z"/>
<path d="M1390 710 c0 -5 5 -10 11 -10 5 0 7 5 4 10 -3 6 -8 10 -11 10 -2 0
-4 -4 -4 -10z"/>
<path d="M2730 685 l0 -35 67 0 c36 0 63 3 59 8 -4 4 -13 7 -19 7 -7 0 -13 10
-15 23 -3 19 1 22 30 22 25 0 29 -3 18 -10 -13 -9 -13 -10 0 -10 12 0 12 -2 2
-9 -11 -7 -11 -9 2 -14 10 -4 16 -1 16 7 0 8 3 21 6 30 5 14 -6 16 -80 16
l-86 0 0 -35z m44 0 c16 -24 16 -25 -9 -23 -26 2 -29 7 -19 32 8 21 9 20 28
-9z m38 0 c3 -14 1 -25 -3 -25 -5 0 -9 10 -9 23 0 16 -3 18 -9 9 -7 -11 -9
-11 -14 2 -4 11 -1 16 12 16 12 0 20 -9 23 -25z"/>
<path d="M375 642 c0 -52 2 -57 23 -60 20 -3 22 0 22 47 0 39 -4 53 -19 61
-11 5 -21 10 -23 10 -2 0 -3 -26 -3 -58z m32 -34 c-3 -7 -5 -2 -5 12 0 14 2
19 5 13 2 -7 2 -19 0 -25z"/>
<path d="M750 690 c0 -5 5 -10 11 -10 5 0 7 5 4 10 -3 6 -8 10 -11 10 -2 0 -4
-4 -4 -10z"/>
<path d="M1072 686 c7 -8 16 -12 21 -9 11 7 -2 23 -19 23 -12 0 -12 -2 -2 -14z"/>
<path d="M1402 689 c-21 -8 -22 -10 -7 -32 8 -13 12 -27 8 -31 -20 -20 -7 -31
40 -34 28 -2 48 0 44 4 -6 7 -27 11 -64 13 -7 1 -13 6 -13 12 0 5 5 7 10 4 16
-10 12 11 -5 25 -19 16 -19 26 0 34 9 3 25 -4 36 -15 18 -18 20 -18 17 -4 -4
23 -37 35 -66 24z"/>
<path d="M1237 669 c4 -13 8 -18 11 -10 2 7 -1 18 -6 23 -8 8 -9 4 -5 -13z"/>
<path d="M2917 675 c-4 -8 -2 -17 3 -20 6 -4 10 3 10 14 0 25 -6 27 -13 6z"/>
<path d="M430 630 c0 -38 4 -50 15 -50 11 0 15 12 15 44 0 30 -5 46 -15 50
-12 4 -15 -4 -15 -44z"/>
<path d="M615 669 c-4 -6 -5 -12 -2 -15 2 -3 7 2 10 11 7 17 1 20 -8 4z"/>
<path d="M1981 663 c0 -12 -8 -29 -17 -37 -8 -9 -11 -16 -5 -16 15 0 33 38 28
58 -4 13 -5 11 -6 -5z"/>
<path d="M484 655 c-10 -8 -14 -14 -9 -15 15 0 40 18 34 24 -3 3 -14 -1 -25
-9z"/>
<path d="M1333 659 c-13 -13 -6 -42 8 -33 5 3 9 0 9 -5 0 -17 27 -13 34 5 12
32 -27 57 -51 33z m37 -14 c0 -8 -4 -15 -9 -15 -13 0 -22 16 -14 24 11 11 23
6 23 -9z"/>
<path d="M274 644 c3 -9 6 -27 6 -40 0 -17 6 -24 20 -24 28 0 28 55 1 70 -27
14 -34 13 -27 -6z"/>
<path d="M1061 646 c-18 -10 -20 -15 -10 -21 7 -5 14 -4 17 3 2 7 10 12 18 12
8 0 14 5 14 10 0 13 -10 12 -39 -4z"/>
<path d="M1910 647 c0 -11 8 -17 25 -17 14 0 25 5 25 11 0 6 -6 9 -14 6 -7 -3
-19 0 -25 6 -8 8 -11 7 -11 -6z"/>
<path d="M1477 639 c-9 -6 -22 -7 -27 -4 -6 3 -10 2 -10 -3 0 -5 10 -12 23
-16 36 -9 77 -7 77 5 0 6 -9 9 -20 6 -11 -3 -18 -1 -15 3 9 14 -9 19 -28 9z"/>
<path d="M2502 635 c-11 -12 -10 -15 3 -15 8 0 15 7 15 15 0 18 -2 18 -18 0z"/>
<path d="M2868 643 c-41 -5 -52 -27 -18 -38 11 -3 20 -11 20 -17 0 -6 3 -8 7
-4 4 4 -3 16 -17 26 l-25 20 38 0 c20 0 37 5 37 10 0 6 -1 9 -2 8 -2 -1 -20
-3 -40 -5z"/>
<path d="M480 630 c-13 -9 -13 -10 0 -10 8 0 22 5 30 10 13 9 13 10 0 10 -8 0
-22 -5 -30 -10z"/>
<path d="M199 613 c-13 -15 -12 -15 9 -4 23 12 28 21 13 21 -5 0 -15 -7 -22
-17z"/>
<path d="M485 607 c-13 -11 -15 -16 -6 -22 7 -4 18 -2 24 4 6 6 7 11 2 11 -6
0 -3 5 5 10 8 5 10 10 4 10 -5 0 -18 -6 -29 -13z"/>
<path d="M1574 594 c-16 -15 -22 -22 -14 -16 8 6 28 12 44 14 26 3 27 5 14 16
-13 11 -21 9 -44 -14z"/>
<path d="M2625 611 c-3 -5 -1 -12 5 -16 5 -3 10 1 10 9 0 18 -6 21 -15 7z"/>
<path d="M2651 608 c-1 -10 6 -18 14 -18 8 0 15 5 15 11 0 5 -4 8 -9 5 -5 -4
-12 0 -14 6 -3 8 -6 6 -6 -4z"/>
<path d="M2712 605 c-11 -12 -10 -15 3 -15 8 0 15 7 15 15 0 18 -2 18 -18 0z"/>
<path d="M1150 601 c0 -5 7 -14 15 -21 13 -11 14 -10 9 4 -8 21 5 21 22 -1 13
-17 14 -17 7 2 -6 18 -5 18 10 6 15 -11 17 -11 17 2 0 10 -11 15 -40 15 -22 0
-40 -3 -40 -7z"/>
<path d="M2468 599 c-6 -4 4 -6 21 -5 17 0 31 4 31 8 0 8 -37 6 -52 -3z"/>
<path d="M2901 594 c0 -11 3 -14 6 -6 3 7 2 16 -1 19 -3 4 -6 -2 -5 -13z"/>
<path d="M2826 593 c-12 -12 -6 -22 9 -17 28 11 15 -4 -16 -20 -18 -9 -42 -13
-55 -10 -15 4 -24 2 -24 -5 0 -6 11 -11 24 -11 13 0 32 -3 42 -7 14 -5 16 -3
11 11 -6 14 -3 17 10 12 16 -7 33 8 33 30 0 14 -25 26 -34 17z"/>
<path d="M1610 581 c-28 -5 -31 -8 -16 -14 14 -6 17 -15 14 -46 -4 -41 -7 -41
65 -15 12 5 17 17 17 45 0 43 -3 44 -80 30z m67 -23 c2 -25 -23 -58 -44 -58
-8 0 -13 12 -13 36 0 21 4 33 10 29 6 -3 10 -1 10 4 0 22 36 11 37 -11z"/>
<path d="M2511 568 c0 -10 -5 -18 -11 -18 -5 0 -10 -6 -10 -13 0 -9 16 -14 53
-14 36 0 41 1 15 4 -31 3 -37 8 -41 31 -2 15 -5 19 -6 10z"/>
<path d="M2772 569 c2 -6 8 -10 13 -10 5 0 11 4 13 10 2 6 -4 11 -13 11 -9 0
-15 -5 -13 -11z"/>
<path d="M1147 564 c-14 -15 7 -24 55 -24 28 0 48 3 45 7 -4 3 -21 6 -39 5
-18 0 -37 3 -44 9 -6 5 -14 6 -17 3z"/>
<path d="M2884 554 c18 -17 26 -18 26 -1 0 7 -9 13 -20 14 -18 2 -18 0 -6 -13z"/>
<path d="M1473 553 c9 -2 17 -13 17 -24 0 -10 5 -19 10 -19 6 0 10 9 10 20 0
11 4 20 8 20 5 0 8 -10 8 -22 -1 -18 -9 -24 -36 -29 -26 -5 -18 -7 33 -8 l67
-1 -6 26 c-5 19 -4 25 5 20 6 -4 11 -2 11 4 0 7 -6 10 -12 7 -7 -2 -13 -14
-12 -26 0 -17 -4 -21 -20 -19 -22 3 -31 43 -9 43 6 0 15 3 19 8 4 4 -19 6 -52
6 -32 -1 -51 -3 -41 -6z"/>
<path d="M2460 541 c0 -6 -15 -12 -32 -14 -32 -4 -32 -4 5 -5 27 -2 37 2 37
13 0 8 -2 15 -5 15 -3 0 -5 -4 -5 -9z"/>
<path d="M2637 538 c-15 -39 -16 -48 -6 -48 13 0 22 24 16 47 -4 17 -4 17 -10
1z"/>
<path d="M182 518 c-14 -5 -13 -7 6 -7 17 -1 22 -7 22 -26 0 -21 -5 -25 -29
-25 -16 0 -31 6 -35 15 -3 8 -10 15 -16 15 -5 0 -10 -7 -10 -15 0 -8 -6 -14
-12 -12 -16 3 -23 -40 -9 -56 13 -17 79 -21 97 -6 8 6 14 7 14 2 0 -5 21 -10
48 -11 26 0 41 2 35 5 -7 2 -13 16 -13 29 0 20 5 24 28 24 22 0 28 -5 30 -24
1 -16 -4 -26 -16 -29 -9 -3 16 -5 56 -6 41 -1 72 -5 72 -11 0 -6 11 -3 25 6
23 15 25 15 25 0 0 -9 -6 -16 -12 -16 -9 0 -10 -3 -2 -8 6 -4 14 -14 17 -22 3
-8 5 3 4 25 -1 26 -6 39 -14 38 -8 -2 -13 7 -13 22 0 21 5 25 30 25 17 0 34
-7 40 -17 11 -17 11 -17 6 0 -3 10 -6 21 -6 23 0 2 -18 4 -40 4 -39 0 -40 -1
-40 -35 0 -19 -3 -35 -8 -35 -4 0 -6 20 -4 45 2 25 2 55 -2 68 -5 20 -10 22
-66 19 -33 -2 -58 -8 -55 -12 3 -5 14 -7 25 -5 23 4 25 -3 6 -28 -11 -14 -15
-15 -19 -5 -4 10 -6 10 -6 1 -1 -16 -61 -18 -61 -2 0 5 5 7 12 3 7 -4 8 -3 4
4 -10 17 -24 15 -29 -5 -3 -11 -5 -7 -6 10 -1 19 3 26 10 21 7 -4 10 -1 7 7
-5 14 -66 19 -96 7z m65 -45 c-3 -10 -5 -4 -5 12 0 17 2 24 5 18 2 -7 2 -21 0
-30z m164 23 c-4 -6 -11 -18 -14 -26 -3 -9 -6 -5 -6 11 -1 16 4 26 14 26 9 0
11 -4 6 -11z m39 -11 c0 -14 -4 -25 -10 -25 -5 0 -10 11 -10 25 0 14 5 25 10
25 6 0 10 -11 10 -25z m-330 -62 c0 -30 -9 -27 -15 6 -2 11 0 21 6 21 5 0 9
-12 9 -27z m70 2 c0 -31 -20 -33 -21 -2 -1 21 -1 21 -9 -3 l-8 -25 -1 28 c-1
21 4 27 19 27 15 0 20 -7 20 -25z m40 -2 c0 -29 -2 -29 -19 5 -10 18 -9 22 4
22 10 0 15 -9 15 -27z m37 -10 c-3 -10 -5 -4 -5 12 0 17 2 24 5 18 2 -7 2 -21
0 -30z m90 0 c-3 -10 -5 -4 -5 12 0 17 2 24 5 18 2 -7 2 -21 0 -30z m20 0 c-3
-10 -5 -4 -5 12 0 17 2 24 5 18 2 -7 2 -21 0 -30z m20 0 c-3 -10 -5 -4 -5 12
0 17 2 24 5 18 2 -7 2 -21 0 -30z m53 13 c0 -19 -5 -24 -20 -23 -14 1 -20 8
-20 24 0 16 6 23 20 23 15 0 20 -7 20 -24z m-203 -18 c-3 -8 -6 -5 -6 6 -1 11
2 17 5 13 3 -3 4 -12 1 -19z"/>
<path d="M468 500 c4 -29 7 -30 52 -30 44 0 49 -2 53 -25 4 -23 4 -23 3 2 -1
26 -5 28 -44 31 -35 3 -45 8 -52 28 -13 33 -17 30 -12 -6z"/>
<path d="M1460 519 c0 -5 5 -7 10 -4 6 3 10 8 10 11 0 2 -4 4 -10 4 -5 0 -10
-5 -10 -11z"/>
<path d="M1970 520 c0 -8 5 -22 10 -30 9 -13 10 -13 10 0 0 8 -5 22 -10 30 -9
13 -10 13 -10 0z"/>
<path d="M1992 519 c2 -7 10 -15 17 -17 8 -3 12 1 9 9 -2 7 -10 15 -17 17 -8
3 -12 -1 -9 -9z"/>
<path d="M2658 505 c-3 -13 -2 -22 2 -20 11 7 20 45 10 45 -4 0 -10 -11 -12
-25z"/>
<path d="M2890 520 c0 -5 -33 -11 -72 -13 l-73 -3 78 -2 c63 -2 77 1 77 13 0
8 -2 15 -5 15 -3 0 -5 -4 -5 -10z"/>
<path d="M996 512 c-3 -5 8 -6 25 -4 16 2 29 6 29 8 0 8 -49 4 -54 -4z"/>
<path d="M2043 513 c-27 -10 -13 -33 20 -32 24 1 26 3 9 6 -15 3 -22 10 -18
19 3 8 4 14 3 13 -1 0 -8 -3 -14 -6z"/>
<path d="M2167 506 c-3 -8 -18 -16 -34 -19 -20 -3 -16 -4 15 -6 36 -1 42 2 42
19 0 23 -15 27 -23 6z"/>
<path d="M2266 505 c4 -8 7 -15 9 -15 2 0 5 7 9 15 3 9 0 15 -9 15 -9 0 -12
-6 -9 -15z"/>
<path d="M181 484 c0 -11 3 -14 6 -6 3 7 2 16 -1 19 -3 4 -6 -2 -5 -13z"/>
<path d="M1901 481 c-1 -19 -5 -23 -26 -19 -19 4 -25 1 -25 -13 0 -13 7 -19
24 -19 37 0 58 10 47 24 -5 6 -11 20 -14 31 -4 17 -5 17 -6 -4z m2 -38 c-7 -2
-19 -2 -25 0 -7 3 -2 5 12 5 14 0 19 -2 13 -5z"/>
<path d="M2443 493 c32 -2 81 -2 110 0 29 2 3 3 -58 3 -60 0 -84 -1 -52 -3z"/>
<path d="M1340 478 c1 -30 16 -39 46 -28 16 6 31 11 34 10 2 -1 6 3 8 9 2 6
-3 11 -12 11 -9 0 -16 -4 -16 -10 0 -5 -4 -10 -10 -10 -5 0 -10 7 -10 15 0 8
-9 15 -20 15 -11 0 -20 -6 -20 -12z m25 -8 c3 -5 1 -10 -4 -10 -6 0 -11 5 -11
10 0 6 2 10 4 10 3 0 8 -4 11 -10z"/>
<path d="M2435 469 c98 -10 105 -13 105 -41 1 -20 2 -21 11 -5 6 10 22 17 40
17 28 0 30 -2 27 -32 -2 -25 -9 -34 -28 -39 -22 -6 -22 -7 -4 -8 29 -1 46 22
42 56 -3 25 -7 28 -45 31 -60 4 -54 20 10 25 28 2 -13 4 -93 4 -133 0 -138 0
-65 -8z"/>
<path d="M2153 463 c9 -2 23 -2 30 0 6 3 -1 5 -18 5 -16 0 -22 -2 -12 -5z"/>
<path d="M2785 462 c-40 -5 -54 -18 -48 -44 5 -17 2 -19 -14 -14 -11 4 -31 3
-43 -2 -18 -7 -24 -17 -24 -43 -1 -33 -3 -34 -36 -32 -57 5 -80 13 -80 29 0 9
5 12 12 8 8 -5 9 -2 5 10 -4 10 -7 20 -7 22 0 2 -4 4 -10 4 -5 0 -10 -9 -10
-20 0 -11 -7 -20 -15 -20 -8 0 -15 -4 -15 -10 0 -5 7 -10 15 -10 9 0 19 -10
24 -22 5 -14 10 -17 15 -10 4 7 21 12 37 12 28 0 30 -2 27 -32 -2 -28 -8 -34
-31 -36 -21 -3 -29 2 -36 20 -10 23 -10 23 -10 1 -1 -12 -9 -27 -18 -33 -17
-10 -17 -10 0 -20 9 -6 17 -21 17 -32 0 -20 1 -21 13 -4 8 11 23 17 38 14 19
-2 24 -9 24 -33 0 -24 -5 -31 -24 -33 -15 -3 -30 3 -38 14 -12 17 -13 16 -13
-4 0 -13 6 -22 15 -22 8 0 15 -4 15 -10 0 -5 -9 -10 -21 -10 -11 0 -17 5 -14
10 3 5 -1 10 -9 10 -9 0 -16 -7 -16 -15 0 -12 14 -15 73 -14 39 1 60 4 45 6
-31 5 -37 18 -13 27 9 3 15 18 15 40 0 36 -12 46 -55 46 -23 0 -50 22 -39 33
3 3 18 2 34 -3 20 -6 32 -4 42 6 13 13 19 10 52 -20 20 -20 39 -45 41 -57 6
-31 12 -34 63 -32 36 1 42 -1 25 -8 -25 -9 -28 -17 -12 -39 8 -12 9 -10 4 8
-4 12 -2 22 4 22 5 0 8 -18 7 -40 -2 -24 2 -44 10 -51 10 -8 13 -5 11 17 -1
20 3 27 18 30 26 4 55 -5 55 -17 0 -6 -9 -5 -21 2 -15 8 -19 8 -15 0 10 -15
-7 -14 -22 1 -9 9 -12 9 -12 0 0 -7 5 -12 11 -12 6 0 9 -6 6 -13 -3 -7 3 -13
13 -13 10 0 16 6 13 13 -3 7 -1 13 5 13 16 0 24 -33 10 -42 -10 -7 -9 -9 2 -5
19 5 25 54 9 73 -10 13 -10 17 0 23 7 5 12 11 12 15 -3 19 1 19 14 2 12 -16
15 -17 15 -4 0 9 -4 18 -9 20 -5 2 -11 34 -14 72 -3 38 -10 73 -15 78 -6 6
-42 9 -81 6 -58 -3 -70 -1 -66 10 3 7 5 19 5 26 0 8 24 11 80 9 56 -1 80 2 81
10 4 34 -4 103 -12 112 -10 10 -67 14 -114 7z m117 -62 l3 -50 -77 0 -78 0 0
50 0 50 74 0 74 0 4 -50z m-170 -55 c3 -40 1 -46 -19 -51 -33 -9 -43 3 -43 52
0 42 1 44 29 44 27 0 29 -3 33 -45z m-80 -54 c-7 -4 0 -18 18 -38 42 -44 38
-54 -5 -13 -38 37 -42 49 -23 68 9 9 14 10 17 1 2 -6 -1 -14 -7 -18z m46 -30
c3 -8 -1 -12 -9 -9 -7 2 -15 10 -17 17 -3 8 1 12 9 9 7 -2 15 -10 17 -17z
m185 12 c3 -5 8 -34 12 -65 l7 -58 -91 0 c-70 0 -91 3 -91 14 0 7 -3 34 -6 59
l-7 46 34 4 c62 7 138 7 142 0z m-39 -139 c-7 -3 -10 -14 -7 -24 5 -19 -7 -27
-20 -14 -9 10 12 44 26 43 8 0 9 -2 1 -5z m29 -30 c-4 -12 -8 -13 -14 -3 -9
15 -2 32 11 24 5 -3 6 -13 3 -21z"/>
<path d="M2760 400 c0 -20 5 -30 15 -30 10 0 15 10 15 30 0 20 -5 30 -15 30
-10 0 -15 -10 -15 -30z"/>
<path d="M2851 418 c2 -46 39 -63 39 -18 0 23 -4 30 -20 30 -11 0 -20 -6 -19
-12z"/>
<path d="M2800 400 c0 -14 7 -20 24 -20 19 0 23 4 19 20 -3 11 -14 20 -24 20
-12 0 -19 -7 -19 -20z"/>
<path d="M2700 350 c0 -5 5 -10 10 -10 6 0 10 5 10 10 0 6 -4 10 -10 10 -5 0
-10 -4 -10 -10z"/>
<path d="M2680 319 c0 -9 31 -21 38 -14 3 3 -1 5 -9 5 -12 0 -11 2 1 10 12 7
10 9 -8 7 -12 0 -22 -4 -22 -8z"/>
<path d="M2773 263 l-43 -4 0 -50 c0 -27 5 -49 10 -49 6 0 10 20 10 45 l0 45
46 0 c27 0 43 4 39 10 -3 6 -9 9 -13 8 -4 -1 -26 -3 -49 -5z"/>
<path d="M2851 209 c-1 -27 2 -49 7 -49 11 0 15 87 4 94 -5 3 -9 -17 -11 -45z"/>
<path d="M2760 195 c0 -28 3 -30 40 -32 39 -2 40 -2 40 30 0 32 -1 33 -40 32
-38 0 -40 -2 -40 -30z m68 -2 c-2 -10 -7 -17 -11 -15 -4 1 -16 2 -27 2 -13 0
-18 5 -14 15 9 22 56 20 52 -2z"/>
<path d="M2456 452 c-7 -12 -1 -196 7 -209 10 -17 -3 -65 -16 -60 -6 2 -14 13
-17 25 -10 44 -87 61 -128 29 -17 -14 -23 -6 -29 43 l-6 42 39 -2 c21 -2 47 0
57 4 9 3 24 8 32 11 17 5 38 51 32 69 -2 6 -10 -6 -17 -26 -13 -34 -40 -53
-40 -28 0 19 23 59 31 54 5 -3 9 0 9 5 0 14 -17 14 -26 0 -4 -8 -9 -7 -15 2
-6 9 -9 -3 -9 -33 l0 -48 -85 0 c-50 0 -85 -4 -85 -10 0 -5 15 -10 34 -10 33
0 33 0 43 -62 6 -35 9 -66 6 -71 -2 -4 -23 -7 -46 -7 -46 -1 -77 -18 -77 -44
0 -23 17 -20 23 4 8 31 84 29 98 -2 9 -21 9 -21 4 4 -3 15 -1 30 5 33 6 4 10
-8 10 -29 0 -29 3 -34 18 -30 13 5 14 4 3 -4 -8 -6 -20 -8 -27 -5 -7 3 -14 -5
-16 -19 -3 -20 -9 -23 -43 -23 -32 0 -42 5 -50 23 -13 29 -25 28 -25 -2 0 -23
-4 -24 -62 -28 -76 -5 -88 -1 -88 23 0 10 -7 19 -15 19 -8 0 -15 5 -15 10 0 6
7 10 15 10 8 0 12 6 9 15 -3 8 -11 13 -16 12 -6 -1 -13 4 -15 11 -4 11 -1 12
15 3 12 -6 23 -7 26 -3 3 5 -35 23 -83 40 -82 28 -89 29 -94 13 -2 -10 2 -29
9 -42 18 -32 17 -49 -1 -25 -8 11 -15 14 -15 8 0 -20 -17 -13 -23 9 -4 15 -2
19 8 15 9 -3 12 0 8 10 -3 7 -9 14 -13 14 -5 0 -11 10 -13 23 -3 16 -5 14 -6
-10 0 -17 -4 -40 -7 -50 -5 -15 -4 -16 6 -3 10 13 11 13 7 0 -5 -21 -32 -19
-31 2 1 10 -2 15 -7 12 -5 -3 -6 -16 -3 -28 4 -16 0 -25 -11 -29 -23 -10 -45
-68 -34 -89 5 -10 17 -18 27 -18 16 1 16 2 0 14 -19 14 -24 36 -8 36 5 0 9 10
7 23 -2 17 3 22 21 20 14 -2 22 3 22 12 0 8 7 15 15 15 8 0 15 -5 15 -11 0 -5
8 -9 18 -7 9 1 23 -1 31 -6 9 -6 12 -5 8 1 -4 6 -1 22 5 35 22 46 88 26 96
-28 1 -13 -2 -24 -8 -24 -6 0 -8 -4 -5 -10 3 -5 3 -10 -2 -11 -4 0 -18 -2 -30
-5 -13 -2 -23 0 -23 5 0 5 -9 11 -20 14 -11 3 -20 1 -20 -4 0 -5 7 -9 15 -9 8
0 21 -15 29 -33 12 -27 14 -29 15 -9 1 12 7 22 14 22 8 0 22 9 32 20 26 29 40
25 21 -6 -10 -14 -15 -33 -13 -42 4 -15 5 -15 6 1 1 15 13 17 106 17 87 0 105
-3 105 -15 0 -18 9 -19 33 0 11 7 26 11 34 8 12 -5 12 -7 1 -14 -9 -6 -7 -9
10 -9 16 0 22 6 22 23 0 28 29 57 56 57 19 0 55 -33 53 -48 -3 -20 2 -32 16
-32 10 0 15 10 15 31 0 16 -4 28 -9 24 -6 -3 -15 4 -21 15 -6 12 -22 25 -36
30 -15 6 -22 15 -18 21 4 8 -1 9 -16 4 -17 -5 -21 -3 -19 12 1 10 -2 27 -6 37
-6 13 -5 21 3 24 6 2 8 10 5 18 -3 8 0 15 6 15 21 3 26 4 40 13 9 6 18 4 25
-5 6 -8 18 -14 26 -14 8 0 14 -6 12 -14 -1 -7 6 -21 17 -30 12 -11 21 -33 23
-54 2 -31 6 -37 25 -37 14 0 23 6 23 15 0 8 -7 15 -15 15 -11 0 -15 12 -15 45
0 31 5 47 15 51 19 8 20 24 1 24 -8 0 -16 7 -20 15 -7 20 4 78 18 87 7 5 4 12
-8 21 -14 10 -18 23 -14 55 4 43 3 48 -6 34z m-565 -262 c18 0 9 -15 -16 -27
-27 -12 -41 -2 -31 24 4 9 13 13 22 9 9 -3 20 -6 25 -6z"/>
<path d="M1420 440 c0 -7 -8 -9 -20 -5 -12 4 -20 2 -20 -5 0 -7 14 -10 38 -8
20 2 36 8 35 13 -3 14 -33 19 -33 5z"/>
<path d="M2476 441 c-3 -4 6 -6 19 -3 14 2 25 6 25 8 0 8 -39 4 -44 -5z"/>
<path d="M2097 433 c-1 0 -56 -4 -122 -8 -66 -4 -121 -8 -121 -9 -1 0 -4 -22
-6 -48 -5 -44 -4 -46 23 -50 16 -3 25 0 22 5 -3 5 0 8 6 6 27 -9 8 -24 -28
-21 -33 3 -41 -1 -65 -32 l-27 -35 28 -7 c61 -13 67 -13 36 1 -18 8 -33 19
-33 24 0 18 50 41 75 35 20 -5 25 -12 25 -39 0 -24 -5 -35 -17 -37 -15 -3 -14
-5 5 -10 20 -6 22 -3 22 38 l0 45 58 -3 57 -3 3 -47 c3 -51 0 -54 -63 -49 -11
1 0 -7 24 -19 74 -34 81 -29 73 65 -4 65 -3 64 -71 66 -23 1 -22 1 5 19 27 16
30 16 49 1 22 -18 125 -18 125 0 0 6 -18 10 -42 8 -86 -5 -88 -4 -88 46 l0 45
72 0 c75 0 89 11 18 13 -23 1 -42 1 -43 0z m-57 -38 c0 -30 -11 -32 -27 -6
-10 15 -10 21 0 24 23 10 27 7 27 -18z m-132 3 c9 -9 12 -9 12 0 0 7 9 12 20
12 25 0 25 -5 1 -39 -16 -22 -17 -28 -5 -28 7 0 14 9 14 19 0 10 5 18 11 18 5
0 7 -4 4 -10 -3 -5 -1 -10 5 -10 7 0 10 7 6 15 -3 9 0 15 10 15 11 0 14 -6 10
-16 -3 -8 -2 -13 2 -10 4 2 14 1 22 -4 24 -15 -3 -32 -49 -31 -124 3 -119 2
-113 23 2 10 10 17 17 14 6 -2 18 0 26 5 10 6 7 9 -13 9 -18 0 -28 5 -28 15 0
18 31 20 48 3z m148 -235 c-2 -3 -10 -2 -16 2 -9 5 -9 10 -1 18 6 6 12 31 13
57 2 40 2 38 5 -14 2 -32 2 -60 -1 -63z"/>
<path d="M2218 423 c12 -2 30 -2 40 0 9 3 -1 5 -23 4 -22 0 -30 -2 -17 -4z"/>
<path d="M2472 398 c2 -16 10 -23 26 -24 20 -2 20 -1 1 3 -15 3 -19 10 -16 24
3 10 1 19 -5 19 -5 0 -8 -10 -6 -22z"/>
<path d="M2583 413 c-31 -6 -29 -23 2 -23 16 0 25 6 25 15 0 8 -1 14 -2 14 -2
-1 -13 -4 -25 -6z"/>
<path d="M2068 375 c4 -30 8 -35 29 -35 23 0 24 2 12 18 -21 27 -23 28 -16 10
4 -10 2 -18 -3 -18 -6 0 -10 11 -10 24 0 19 5 24 28 24 15 0 30 -5 34 -12 6
-8 8 -7 8 2 0 6 9 12 20 12 14 0 20 -7 21 -22 0 -22 1 -22 9 -2 6 16 18 21 54
23 40 2 46 -1 46 -19 0 -11 4 -20 9 -20 5 0 7 9 4 20 -3 11 0 20 6 20 6 0 11
-11 11 -25 0 -20 -5 -25 -25 -25 -14 0 -25 5 -25 10 0 6 -5 10 -11 10 -5 0 -8
-4 -5 -8 3 -5 -8 -9 -25 -10 -17 0 -34 -3 -37 -6 -3 -3 29 -6 71 -6 l77 0 -3
35 -2 35 -140 0 -141 0 4 -35z"/>
<path d="M578 393 c53 -3 62 -7 62 -23 0 -10 4 -21 9 -24 5 -4 8 2 6 11 -2 10
-4 24 -4 31 -1 8 -20 11 -68 10 l-68 -2 63 -3z"/>
<path d="M850 380 c0 -7 7 -10 15 -6 11 4 15 -2 16 -27 0 -27 2 -29 9 -12 7
17 9 17 9 3 1 -10 6 -18 12 -18 16 0 -27 64 -46 68 -8 2 -15 -2 -15 -8z"/>
<path d="M1036 381 c-4 -5 3 -7 14 -4 23 6 26 13 6 13 -8 0 -17 -4 -20 -9z"/>
<path d="M1280 382 c0 -8 -21 -12 -59 -12 -33 0 -62 -3 -65 -8 -2 -4 14 -6 37
-3 36 3 40 2 29 -12 -10 -12 -10 -17 -1 -23 7 -4 9 -3 5 4 -8 13 10 26 25 16
8 -4 7 -9 -2 -15 -11 -7 -11 -9 -1 -9 7 0 10 -5 7 -11 -4 -6 -13 -8 -19 -6 -7
3 -19 1 -27 -4 -10 -6 -2 -9 24 -9 32 0 37 3 37 23 0 13 -5 28 -12 35 -9 9 -8
12 4 12 18 0 34 18 24 27 -3 4 -6 1 -6 -5z"/>
<path d="M580 375 c0 -5 5 -17 10 -25 5 -8 10 -10 10 -5 0 6 -5 17 -10 25 -5
8 -10 11 -10 5z"/>
<path d="M523 347 c0 -12 1 -16 4 -8 4 11 7 11 13 0 12 -19 38 -20 35 0 -1 9
-8 15 -15 13 -7 -1 -17 2 -24 7 -8 7 -12 4 -13 -12z"/>
<path d="M611 354 c0 -11 3 -14 6 -6 3 7 2 16 -1 19 -3 4 -6 -2 -5 -13z"/>
<path d="M1655 362 c19 -14 16 -55 -7 -79 l-21 -23 27 0 c23 0 26 3 17 13 -6
8 -8 16 -6 19 10 10 68 -7 73 -21 3 -8 0 -11 -5 -8 -5 3 -15 2 -23 -4 -11 -6
-5 -9 21 -9 23 0 42 7 54 20 10 11 15 20 10 20 -4 0 -1 8 6 18 11 13 8 12 -9
-3 -25 -20 -26 -20 -53 28 -6 10 -16 16 -23 14 -6 -3 -20 1 -31 9 -10 8 -24
14 -29 14 -7 0 -8 -3 -1 -8z m114 -97 c0 -5 -8 0 -18 13 -11 12 -30 22 -45 22
-30 0 -34 14 -8 29 14 8 22 4 44 -22 15 -18 27 -36 27 -42z"/>
<path d="M2126 356 c8 -21 34 -21 33 2 0 11 -2 12 -6 4 -4 -10 -8 -10 -19 -1
-12 10 -13 9 -8 -5z"/>
<path d="M2170 361 c0 -6 4 -13 10 -16 6 -3 7 1 4 9 -7 18 -14 21 -14 7z"/>
<path d="M1540 339 c0 -10 31 -20 41 -13 17 10 9 22 -16 20 -14 0 -25 -4 -25
-7z"/>
<path d="M2480 322 c0 -6 9 -8 19 -5 15 4 21 -1 24 -21 4 -26 4 -26 3 1 -1 21
-7 29 -23 31 -13 2 -23 -1 -23 -6z"/>
<path d="M1340 290 c-9 -16 -15 -18 -36 -10 -31 12 -34 12 -34 1 0 -14 37 -23
60 -16 11 3 20 12 20 20 0 7 6 16 13 18 9 4 9 6 0 6 -7 1 -17 -8 -23 -19z"/>
<path d="M2480 289 c0 -5 5 -7 10 -4 6 3 10 8 10 11 0 2 -4 4 -10 4 -5 0 -10
-5 -10 -11z"/>
<path d="M2573 293 c-22 -8 -14 -23 12 -23 16 0 25 6 25 15 0 15 -14 18 -37 8z"/>
<path d="M1360 280 c0 -5 5 -10 10 -10 6 0 10 5 10 10 0 6 -4 10 -10 10 -5 0
-10 -4 -10 -10z"/>
<path d="M1015 255 l-30 -25 33 2 c17 1 32 7 32 13 0 6 3 7 8 0 4 -5 17 -11
29 -12 16 -2 21 2 17 12 -4 8 -10 12 -15 9 -5 -3 -9 2 -9 10 0 24 -31 19 -65
-9z"/>
<path d="M1200 263 c0 -16 26 -18 35 -2 5 6 13 3 22 -10 15 -22 43 -29 43 -11
0 6 -7 10 -15 10 -9 0 -18 6 -21 13 -7 18 -64 18 -64 0z"/>
<path d="M1943 273 c9 -2 25 -2 35 0 9 3 1 5 -18 5 -19 0 -27 -2 -17 -5z"/>
<path d="M2084 264 c3 -9 6 -31 6 -50 l0 -34 85 0 c94 0 93 -1 79 69 l-6 31
-85 0 c-74 0 -84 -2 -79 -16z m119 -51 c-23 -22 -26 -22 -54 -8 -32 17 -37 30
-15 38 10 4 13 1 10 -7 -3 -8 -1 -17 4 -20 6 -3 15 8 21 25 10 30 11 30 35 12
l24 -18 -25 -22z m40 -6 c3 -7 -3 -13 -14 -13 -13 0 -15 3 -7 13 6 7 12 13 13
13 2 0 5 -6 8 -13z m-113 -7 c8 -5 11 -10 5 -10 -5 0 -17 5 -25 10 -8 5 -10
10 -5 10 6 0 17 -5 25 -10z"/>
<path d="M2180 241 c0 -5 -3 -18 -7 -28 -5 -16 -4 -16 14 2 20 20 21 35 2 35
-5 0 -9 -4 -9 -9z"/>
<path d="M590 262 c0 -4 10 -8 21 -9 12 -1 24 -5 27 -8 9 -9 -21 -26 -35 -20
-7 2 -13 0 -13 -5 0 -6 13 -10 29 -10 25 0 29 3 26 25 -1 14 2 25 6 25 5 0 9
-5 9 -11 0 -8 4 -8 15 1 8 6 20 8 26 4 8 -4 9 -3 5 4 -8 13 -116 17 -116 4z"/>
<path d="M790 259 c0 -5 5 -7 10 -4 6 3 10 8 10 11 0 2 -4 4 -10 4 -5 0 -10
-5 -10 -11z"/>
<path d="M835 260 c-14 -6 -15 -9 -5 -10 12 0 11 -3 -3 -11 -9 -6 -26 -7 -37
-4 -16 5 -20 2 -19 -17 0 -21 1 -21 8 -4 6 15 9 16 13 5 3 -8 -1 -20 -8 -27
-12 -11 -15 -8 -20 17 -8 38 -44 51 -44 15 0 -15 -6 -24 -15 -24 -8 0 -15 -4
-15 -10 0 -18 29 -10 35 10 8 24 21 26 29 4 9 -23 8 -24 -12 -24 -10 0 -27 -7
-39 -15 -19 -13 -22 -13 -28 3 -4 11 1 23 15 34 21 17 20 38 -3 38 -7 0 -6 -4
3 -10 12 -8 11 -10 -7 -10 -16 0 -21 -4 -17 -15 4 -10 2 -13 -8 -10 -8 3 -24
-5 -36 -18 l-23 -24 47 -12 c40 -10 49 -10 65 5 10 9 24 14 31 11 7 -2 23 5
36 16 12 11 22 15 22 9 0 -7 8 -12 18 -12 10 0 13 3 7 8 -15 10 -12 44 4 50 8
3 11 0 7 -7 -4 -6 -2 -11 4 -11 7 0 10 7 6 15 -3 8 -2 15 3 15 4 0 8 7 8 15 0
8 -1 15 -1 14 -1 0 -10 -4 -21 -9z m-174 -93 c-1 -4 -3 -7 -6 -7 -40 0 -40 0
-25 10 16 10 32 9 31 -3z"/>
<path d="M1370 248 c0 -7 -3 -22 -6 -34 -7 -26 40 -52 62 -33 8 7 14 7 14 1 0
-22 -25 -30 -50 -17 -33 19 -40 18 -39 -2 0 -12 2 -13 6 -5 4 10 10 9 30 -4
21 -13 29 -14 48 -4 15 8 21 18 18 28 -4 10 -2 13 5 8 7 -4 12 -1 12 8 0 19
57 49 64 32 2 -6 5 -3 5 6 1 9 7 19 14 21 6 3 2 6 -9 6 -12 1 -24 -6 -28 -14
-3 -8 -11 -15 -18 -15 -6 0 -22 -10 -35 -22 -13 -12 -23 -17 -23 -11 0 5 9 18
20 28 31 28 24 35 -35 35 -37 0 -55 -4 -55 -12z m90 -3 c0 -3 -10 -19 -21 -35
-19 -25 -25 -27 -45 -18 -28 13 -30 21 -8 42 14 15 74 23 74 11z"/>
<path d="M1580 241 c0 -11 -8 -22 -17 -24 -16 -4 -16 -5 0 -6 10 0 17 -7 15
-13 -6 -17 -69 -48 -85 -43 -7 2 -13 -3 -13 -11 0 -9 4 -14 8 -12 4 2 29 12
55 23 39 17 47 24 47 47 0 14 3 33 6 42 3 9 1 16 -5 16 -6 0 -11 -9 -11 -19z"/>
<path d="M1936 248 c3 -4 18 -6 35 -4 19 2 28 -1 26 -8 -2 -6 -12 -11 -22 -11
-10 0 -20 -7 -22 -15 -4 -13 -3 -13 6 0 7 10 11 11 11 3 0 -8 13 -13 31 -13
27 0 30 3 27 28 -3 25 -6 27 -50 27 -25 0 -44 -3 -42 -7z"/>
<path d="M2488 253 c6 -2 18 -2 25 0 6 3 1 5 -13 5 -14 0 -19 -2 -12 -5z"/>
<path d="M1628 243 c12 -2 30 -2 40 0 9 3 -1 5 -23 4 -22 0 -30 -2 -17 -4z"/>
<path d="M1600 202 c0 -16 9 -37 20 -47 17 -16 20 -16 20 -2 0 21 40 33 51 16
7 -11 9 -11 9 -1 0 21 -28 25 -54 8 -23 -15 -25 -14 -31 4 -10 31 0 37 70 39
61 2 65 0 66 -21 0 -22 1 -22 9 -3 5 11 9 23 9 28 1 4 -37 7 -84 7 l-85 0 0
-28z"/>
<path d="M2350 219 c0 -6 -7 -9 -15 -5 -15 5 -16 3 -19 -46 -1 -21 3 -28 16
-28 10 0 18 -5 18 -11 0 -8 4 -8 15 1 8 6 19 9 24 5 6 -3 3 11 -5 31 -8 19
-11 33 -5 30 5 -4 13 -1 17 5 5 9 -1 10 -22 6 -16 -3 -23 -4 -16 -1 14 7 16
24 2 24 -5 0 -10 -5 -10 -11z m6 -27 c6 -4 13 -15 17 -24 5 -14 1 -18 -17 -18
-25 0 -37 15 -28 38 5 14 12 15 28 4z"/>
<path d="M2335 181 c-3 -5 -2 -12 3 -15 5 -3 9 1 9 9 0 17 -3 19 -12 6z"/>
<path d="M2487 203 c-4 -3 -7 -20 -7 -37 0 -26 4 -31 25 -31 21 0 25 5 25 28
0 21 -5 27 -22 28 -22 0 -22 1 -3 9 15 6 16 9 4 9 -9 1 -19 -2 -22 -6z m33
-38 c0 -8 -7 -15 -15 -15 -8 0 -15 7 -15 15 0 8 7 15 15 15 8 0 15 -7 15 -15z"/>
<path d="M2390 174 c0 -8 5 -12 10 -9 6 4 8 11 5 16 -9 14 -15 11 -15 -7z"/>
<path d="M938 159 c-10 -5 -18 -15 -18 -21 0 -7 -12 -24 -27 -40 -32 -33 -28
-40 17 -31 30 6 32 7 12 14 l-22 8 25 27 c20 21 28 25 37 16 7 -7 22 -12 34
-12 25 0 33 -9 40 -45 3 -18 0 -25 -11 -25 -12 0 -13 4 -6 18 7 13 6 23 -1 30
-16 16 -31 15 -54 -4 -18 -15 -17 -15 14 -10 22 4 32 2 30 -5 -2 -6 -21 -13
-42 -15 -57 -5 -76 -13 -76 -34 0 -21 26 -30 55 -20 16 6 13 9 -15 12 l-35 5
35 2 c22 1 30 4 22 9 -7 5 15 6 47 4 l59 -4 -8 38 c-5 20 -16 41 -24 46 -8 5
-23 16 -32 26 -17 16 -18 16 -11 -1 5 -13 3 -17 -5 -14 -7 2 -12 12 -12 21 2
18 -4 20 -28 5z"/>
<path d="M2080 160 c0 -12 47 -12 75 0 15 6 8 9 -27 9 -27 1 -48 -3 -48 -9z"/>
<path d="M2560 154 c0 -10 7 -14 22 -12 32 5 35 28 4 28 -17 0 -26 -5 -26 -16z"/>
<path d="M1535 140 c-23 -11 -51 -16 -67 -13 -18 3 -33 0 -44 -12 -9 -9 -25
-14 -36 -12 -10 3 -16 1 -13 -3 3 -5 -1 -11 -7 -13 -10 -4 -10 -6 0 -6 6 -1
12 -7 12 -15 0 -8 5 -18 11 -22 7 -4 9 0 5 13 -7 22 18 45 64 57 17 4 12 0
-12 -14 -47 -25 -53 -61 -10 -59 23 2 24 2 5 6 -13 2 -23 7 -23 11 0 13 67 52
121 72 l54 19 22 -27 c13 -15 23 -22 23 -16 0 13 -43 54 -56 53 -5 0 -27 -9
-49 -19z"/>
<path d="M2409 153 c-1 -5 -2 -12 -4 -18 -1 -5 -3 -14 -3 -19 -1 -5 -9 -3 -17
4 -12 10 -15 10 -15 -4 0 -19 31 -21 48 -4 7 7 12 8 12 2 0 -5 -6 -16 -12 -23
-11 -10 -10 -11 5 -6 22 9 25 75 2 75 -8 0 -16 -3 -16 -7z"/>
<path d="M1663 143 c-29 -6 -29 -19 -1 -34 17 -9 20 -9 15 4 -3 8 0 20 6 26 6
6 9 10 7 10 -3 -1 -15 -4 -27 -6z"/>
<path d="M1900 142 c-19 -6 -30 -22 -30 -43 0 -22 47 -34 64 -17 21 22 -5 69
-34 60z m27 -28 c7 -20 -17 -37 -34 -23 -15 13 -6 39 13 39 8 0 17 -7 21 -16z"/>
<path d="M576 133 c-4 -5 -12 -9 -17 -9 -5 -1 -13 -2 -18 -3 -8 -1 -15 -101
-6 -101 2 0 15 5 29 11 30 14 46 67 25 80 -10 6 -11 9 -1 9 6 0 12 5 12 10 0
12 -13 13 -24 3z m-17 -34 c-16 -10 -23 -4 -14 10 3 6 11 8 17 5 6 -4 5 -9 -3
-15z m13 -31 c-7 -7 -12 -8 -12 -2 0 14 12 26 19 19 2 -3 -1 -11 -7 -17z m-17
-17 c3 -5 1 -12 -5 -16 -5 -3 -10 1 -10 9 0 18 6 21 15 7z"/>
<path d="M611 90 c-1 -40 2 -48 19 -53 15 -4 19 -2 12 6 -13 17 -21 67 -11 67
5 0 9 -13 9 -30 0 -23 4 -30 20 -30 16 0 20 7 20 35 0 19 -1 35 -3 35 -1 0
-16 4 -33 9 l-31 9 -2 -48z m46 -12 c-3 -7 -5 -2 -5 12 0 14 2 19 5 13 2 -7 2
-19 0 -25z"/>
<path d="M727 134 c-8 -8 1 -24 14 -24 5 0 9 7 9 15 0 15 -12 20 -23 9z"/>
<path d="M880 128 c0 -5 -5 -6 -12 -2 -15 10 -37 -23 -31 -46 7 -26 20 -25 28
0 4 12 15 29 26 39 15 14 16 18 4 18 -8 0 -15 -4 -15 -9z"/>
<path d="M1341 124 c0 -11 3 -14 6 -6 3 7 2 16 -1 19 -3 4 -6 -2 -5 -13z"/>
<path d="M2017 133 c-4 -3 -7 -21 -7 -40 l0 -33 65 0 65 0 0 40 0 40 -58 0
c-32 0 -62 -3 -65 -7z m19 -30 c-6 -17 -5 -17 8 0 13 17 82 25 71 8 -3 -5 -1
-12 5 -16 12 -7 4 -25 -12 -25 -5 0 -8 6 -5 14 3 8 -1 17 -9 20 -7 3 -13 2
-13 -2 1 -4 1 -14 0 -22 -1 -13 -2 -13 -11 0 -6 9 -10 10 -10 3 0 -6 -9 -11
-20 -10 -21 1 -24 6 -14 31 8 22 18 20 10 -1z"/>
<path d="M2208 133 c12 -2 30 -2 40 0 9 3 -1 5 -23 4 -22 0 -30 -2 -17 -4z"/>
<path d="M692 73 l2 -50 31 10 c38 13 37 11 29 30 -4 13 -10 14 -24 7 -27 -14
-37 -12 -16 3 16 12 16 14 -3 31 l-21 19 2 -50z"/>
<path d="M2218 113 c-19 -3 -28 -10 -28 -23 0 -25 13 -32 45 -24 18 4 25 13
25 30 0 13 -3 23 -7 23 -5 -1 -20 -4 -35 -6z m22 -23 c0 -5 -10 -10 -22 -10
-19 0 -20 2 -8 10 19 13 30 13 30 0z"/>
<path d="M1564 102 c-8 -5 -7 -11 4 -22 14 -13 15 -12 9 3 -3 9 -2 17 3 17 6
0 10 -9 10 -19 0 -13 -8 -21 -25 -24 -23 -4 -23 -4 2 -3 23 1 28 6 28 25 0 26
-13 35 -31 23z"/>
<path d="M1776 95 c-3 -8 -13 -15 -21 -15 -9 0 -14 -4 -10 -9 3 -6 -1 -15 -8
-22 -11 -11 -11 -15 2 -28 20 -20 101 -24 101 -5 0 7 8 18 18 23 16 10 16 10
0 11 -13 0 -18 8 -18 26 0 22 -3 24 -14 15 -11 -9 -17 -8 -29 3 -13 14 -16 14
-21 1z m35 -25 c20 -11 27 -60 8 -60 -5 0 -7 4 -4 10 4 7 -2 7 -18 1 -14 -6
-28 -7 -31 -4 -10 10 -7 38 6 51 15 15 15 15 39 2z"/>
<path d="M1772 40 c0 -14 2 -19 5 -12 2 6 2 18 0 25 -3 6 -5 1 -5 -13z"/>
<path d="M2708 102 c-16 -2 -28 -8 -28 -13 0 -6 -4 -8 -9 -5 -5 3 -11 -3 -14
-14 -4 -15 0 -20 14 -20 12 0 19 7 19 20 0 29 48 28 59 -2 4 -12 10 -17 14
-11 12 19 -26 49 -55 45z"/>
<path d="M1303 93 c9 -2 25 -2 35 0 9 3 1 5 -18 5 -19 0 -27 -2 -17 -5z"/>
<path d="M1239 70 l-24 -19 79 1 c60 1 74 3 56 10 -14 5 -43 6 -65 3 -37 -6
-39 -5 -21 10 11 8 15 15 9 15 -6 0 -21 -9 -34 -20z"/>
<path d="M2447 73 c13 -3 23 -13 25 -26 2 -17 11 -23 41 -25 22 -2 37 1 37 8
0 6 -10 8 -24 4 -21 -5 -24 -3 -19 15 4 17 13 21 44 21 40 0 50 -15 27 -38 -9
-9 -4 -12 23 -12 31 0 34 3 35 30 l1 30 -106 -1 c-58 -1 -96 -4 -84 -6z m44
-36 c-8 -8 -11 -7 -11 4 0 20 13 34 18 19 3 -7 -1 -17 -7 -23z m132 13 c-3
-11 -11 -20 -18 -20 -8 0 -11 8 -8 20 3 11 11 20 18 20 8 0 11 -8 8 -20z"/>
<path d="M2700 51 c0 -25 4 -31 21 -31 16 0 20 5 17 27 -2 17 -10 29 -20 31
-14 3 -18 -3 -18 -27z"/>
<path d="M471 30 c0 -29 1 -32 10 -17 7 11 7 23 0 35 -9 14 -10 11 -10 -18z"/>
<path d="M312 25 c0 -17 2 -22 5 -12 2 9 2 23 0 30 -3 6 -5 -1 -5 -18z"/>
<path d="M331 23 c0 -16 3 -22 6 -15 2 6 23 13 46 14 l42 1 -45 7 -45 7 48 1
c39 2 47 -1 47 -16 0 -10 7 -19 15 -19 9 0 15 10 15 24 0 22 -4 23 -65 23 -64
0 -65 0 -64 -27z"/>
<path d="M2310 25 c0 -29 16 -34 23 -8 4 17 5 17 6 1 2 -28 21 -21 21 7 0 20
-5 25 -25 25 -20 0 -25 -5 -25 -25z"/>
<path d="M665 30 c3 -5 8 -10 11 -10 2 0 4 5 4 10 0 6 -5 10 -11 10 -5 0 -7
-4 -4 -10z"/>
<path d="M1070 33 c0 -5 5 -15 11 -23 9 -13 10 -12 5 3 -3 11 0 17 9 17 8 0
15 -8 15 -17 1 -17 1 -17 11 0 5 9 18 17 29 17 10 0 21 -8 23 -17 4 -17 5 -17
6 0 0 10 6 15 11 12 6 -3 10 -1 10 4 0 7 -26 11 -65 11 -36 0 -65 -3 -65 -7z"/>
<path d="M1210 23 c0 -14 2 -15 9 -4 7 11 11 10 21 -5 11 -18 11 -18 6 1 -6
20 -6 20 9 1 8 -11 15 -14 15 -7 0 7 4 9 10 6 6 -3 7 1 4 9 -9 24 -74 22 -74
-1z"/>
<path d="M1306 27 c3 -10 9 -15 12 -12 3 3 0 11 -7 18 -10 9 -11 8 -5 -6z"/>
<path d="M1350 26 c0 -8 -6 -17 -12 -19 -8 -4 -9 -6 -2 -6 18 -1 37 26 24 34
-5 3 -10 0 -10 -9z"/>
<path d="M1470 37 c8 -8 90 -15 85 -8 -2 4 -23 8 -47 10 -23 1 -40 0 -38 -2z"/>
<path d="M2437 33 c-12 -12 -7 -22 8 -17 8 4 15 10 15 15 0 11 -14 12 -23 2z"/>
<path d="M2660 25 c0 -11 -18 -15 -82 -18 l-83 -3 83 -2 c67 -2 84 1 89 14 5
13 7 13 14 2 7 -10 9 -9 9 5 0 9 -7 17 -15 17 -8 0 -15 -7 -15 -15z"/>
<path d="M2750 26 c0 -8 -12 -17 -27 -19 l-28 -4 27 -2 c18 0 31 6 38 19 7 14
7 20 0 20 -5 0 -10 -6 -10 -14z"/>
<path d="M200 13 c0 -12 3 -14 8 -6 4 6 23 13 42 16 33 4 33 4 -7 5 -35 2 -43
-1 -43 -15z"/>
<path d="M970 19 c0 -5 5 -7 11 -3 6 3 15 0 20 -7 7 -11 9 -10 9 4 0 10 -8 17
-20 17 -11 0 -20 -5 -20 -11z"/>
<path d="M1050 15 c0 -8 4 -15 10 -15 5 0 7 7 4 15 -4 8 -8 15 -10 15 -2 0 -4
-7 -4 -15z"/>
<path d="M1395 20 c3 -5 8 -10 11 -10 2 0 4 5 4 10 0 6 -5 10 -11 10 -5 0 -7
-4 -4 -10z"/>
<path d="M1420 21 c0 -5 9 -7 20 -4 11 3 20 1 20 -4 0 -5 7 -10 16 -10 14 0
14 2 -2 14 -20 15 -54 17 -54 4z"/>
<path d="M1857 24 c-8 -8 1 -24 14 -24 5 0 9 7 9 15 0 15 -12 20 -23 9z"/>
<path d="M1578 13 c7 -3 16 -2 19 1 4 3 -2 6 -13 5 -11 0 -14 -3 -6 -6z"/>
<path d="M2035 9 c-42 -5 -35 -6 38 -7 48 -1 87 0 87 2 0 8 -76 11 -125 5z"/>
<path d="M1528 3 c6 -2 18 -2 25 0 6 3 1 5 -13 5 -14 0 -19 -2 -12 -5z"/>
<path d="M2818 3 c7 -3 16 -2 19 1 4 3 -2 6 -13 5 -11 0 -14 -3 -6 -6z"/>
</g>
</svg>
